<?xml version="1.0" encoding="UTF-8"?>
<svg xmlns="http://www.w3.org/2000/svg" xmlns:xlink="http://www.w3.org/1999/xlink" width="16px" height="18px" viewBox="0 0 16 17" version="1.1">
<g id="surface1">
<path style=" stroke:none;fill-rule:nonzero;fill:rgb(0%,0%,0%);fill-opacity:1;" d="M 8.566406 3.230469 C 8.21875 3.398438 8.046875 3.679688 8.054688 4.046875 C 8.054688 4.375 8.199219 4.59375 8.554688 4.816406 L 8.800781 4.972656 L 8.785156 6.332031 L 8.765625 7.695312 L 8.472656 7.777344 C 8.3125 7.820312 8.085938 7.941406 7.972656 8.050781 L 7.765625 8.238281 L 7.300781 7.890625 C 7.039062 7.695312 6.78125 7.496094 6.714844 7.453125 C 6.648438 7.410156 6.578125 7.277344 6.566406 7.160156 C 6.535156 6.933594 6.328125 6.722656 6.132812 6.722656 C 5.941406 6.722656 5.71875 6.941406 5.714844 7.125 C 5.714844 7.382812 5.921875 7.5625 6.179688 7.535156 C 6.359375 7.515625 6.472656 7.566406 6.847656 7.851562 C 7.101562 8.042969 7.367188 8.246094 7.445312 8.308594 C 7.578125 8.410156 7.585938 8.441406 7.527344 8.613281 C 7.488281 8.722656 7.453125 8.976562 7.445312 9.171875 L 7.433594 9.535156 L 6.035156 10.066406 C 5.261719 10.359375 4.566406 10.613281 4.488281 10.632812 C 4.394531 10.65625 4.273438 10.617188 4.148438 10.53125 C 3.746094 10.246094 3.167969 10.542969 3.167969 11.03125 C 3.167969 11.316406 3.28125 11.46875 3.585938 11.589844 C 3.785156 11.664062 3.839844 11.664062 4.054688 11.5625 C 4.191406 11.5 4.339844 11.367188 4.386719 11.257812 C 4.464844 11.089844 4.625 11.011719 6.046875 10.472656 L 7.613281 9.875 L 7.808594 10.074219 C 7.914062 10.179688 8.054688 10.300781 8.121094 10.332031 C 8.226562 10.390625 8.21875 10.433594 8.027344 10.953125 C 7.859375 11.417969 7.785156 11.527344 7.625 11.601562 C 7.386719 11.710938 7.332031 11.785156 7.332031 11.996094 C 7.332031 12.375 7.886719 12.527344 8.105469 12.203125 C 8.207031 12.066406 8.214844 12.007812 8.140625 11.824219 C 8.058594 11.613281 8.105469 11.417969 8.425781 10.65625 C 8.460938 10.585938 8.578125 10.5625 8.898438 10.5625 L 9.328125 10.5625 L 9.832031 11.847656 L 10.347656 13.136719 L 10.140625 13.359375 C 9.621094 13.917969 10.046875 14.84375 10.828125 14.84375 C 11.394531 14.84375 11.800781 14.476562 11.800781 13.960938 C 11.800781 13.480469 11.472656 13.097656 10.992188 13.027344 C 10.761719 12.992188 10.726562 12.960938 10.605469 12.660156 C 10.539062 12.484375 10.3125 11.914062 10.105469 11.386719 L 9.726562 10.441406 L 10.011719 10.175781 L 10.300781 9.910156 L 11.960938 10.503906 C 13.035156 10.890625 13.652344 11.144531 13.714844 11.226562 C 13.878906 11.449219 14.265625 11.355469 14.265625 11.09375 C 14.265625 10.898438 14.066406 10.765625 13.839844 10.808594 C 13.679688 10.839844 13.28125 10.726562 12.027344 10.269531 L 10.414062 9.691406 L 10.453125 9.300781 C 10.472656 9.089844 10.511719 8.894531 10.546875 8.875 C 10.585938 8.847656 10.847656 8.773438 11.140625 8.695312 L 11.667969 8.558594 L 11.851562 8.761719 C 12.007812 8.925781 12.105469 8.964844 12.375 8.988281 C 12.765625 9.019531 12.972656 8.925781 13.1875 8.625 C 13.488281 8.207031 13.28125 7.664062 12.746094 7.441406 C 12.527344 7.351562 12.421875 7.363281 12.054688 7.496094 C 11.832031 7.574219 11.652344 7.820312 11.601562 8.121094 C 11.566406 8.335938 11.554688 8.339844 11.007812 8.492188 C 10.453125 8.652344 10.445312 8.652344 10.375 8.53125 C 10.226562 8.277344 9.6875 7.828125 9.464844 7.765625 L 9.234375 7.699219 L 9.214844 6.292969 C 9.199219 5.011719 9.207031 4.882812 9.308594 4.882812 C 9.375 4.882812 9.535156 4.769531 9.679688 4.628906 C 9.898438 4.402344 9.933594 4.332031 9.933594 4.074219 C 9.933594 3.347656 9.21875 2.910156 8.566406 3.230469 Z M 8.566406 3.230469 "/>
</g>
</svg>
